<svg version="1.2" xmlns="http://www.w3.org/2000/svg" viewBox="0 0 312 225" width="312" height="225">
	<title>7550</title>
	<defs>
		<clipPath clipPathUnits="userSpaceOnUse" id="cp1">
			<path d="m-447.66-79.22c-21.06-45.86-76.07-76.87-137.51-76.77-61.29 0.09-115.97 31.12-136.93 76.77 21.06 45.87 76.06 76.87 137.5 76.78 61.29-0.1 115.97-31.12 136.94-76.78z"/>
		</clipPath>
		<clipPath clipPathUnits="userSpaceOnUse" id="cp2">
			<path d="m-447.66 330.25c-21.06-45.86-76.07-76.87-137.51-76.77-61.29 0.09-115.97 31.12-136.93 76.77 21.06 45.87 76.06 76.87 137.5 76.78 61.29-0.1 115.97-31.12 136.94-76.78z"/>
		</clipPath>
	</defs>
	<style>
		.s0 { fill: #000000 } 
	</style>
	<g id="Слой 1">
		<g id="&lt;Group&gt;">
		</g>
		<g id="&lt;Group&gt;">
			<g id="&lt;Clip Group&gt;" clip-path="url(#cp1)">
			</g>
		</g>
		<g id="&lt;Group&gt;">
			<g id="&lt;Clip Group&gt;" clip-path="url(#cp2)">
			</g>
		</g>
		<g id="&lt;Group&gt;">
		</g>
		<g id="&lt;Group&gt;">
		</g>
		<g id="&lt;Group&gt;">
		</g>
		<g id="&lt;Group&gt;">
		</g>
		<g id="&lt;Group&gt;">
		</g>
		<g id="&lt;Group&gt;">
			<path id="&lt;Compound Path&gt;" fill-rule="evenodd" class="s0" d="m299.6 113.7l-1.1 2.4c-22 47.9-79.1 80.1-142.2 80.2h-0.2c-63.3 0-120.5-32.2-142.5-80.2l-1.1-2.4 1.1-2.4c22-47.8 79.1-80 142.1-80.1h0.3c63.3 0 120.5 32.2 142.5 80.1zm-12.7 0c-21-42.6-73.2-71-130.9-71h-0.2c-57.6 0.1-109.7 28.5-130.6 71 21 42.6 73.1 71 130.8 71h0.3c57.6-0.1 109.6-28.5 130.6-71z"/>
			<path id="&lt;Compound Path&gt;" fill-rule="evenodd" class="s0" d="m196.7 113.7c0 22.5-18.2 40.7-40.7 40.7-22.4 0-40.7-18.2-40.7-40.7 0-22.5 18.3-40.7 40.7-40.7 22.5 0 40.7 18.2 40.7 40.7zm-30.9 11.6c0.4-0.8 1.1-1.4 1.8-1.8l12.3-6.1c3-1.5 3-5.8 0-7.3l-12.3-6.2c-0.7-0.4-1.4-1-1.8-1.8l-6.1-12.3c-0.8-1.5-2.2-2.2-3.7-2.2-1.4 0-2.8 0.7-3.6 2.2l-6.2 12.3c-0.3 0.8-1 1.4-1.8 1.8l-12.3 6.2c-3 1.5-3 5.8 0 7.3l12.3 6.1c0.8 0.4 1.5 1 1.8 1.8l6.2 12.3c0.8 1.5 2.2 2.3 3.6 2.3 1.5 0 2.9-0.8 3.7-2.3z"/>
			<path id="&lt;Compound Path&gt;" fill-rule="evenodd" class="s0" d="m216.5 113.7c0 33.4-27.1 60.5-60.5 60.5-33.3 0-60.4-27.1-60.4-60.5 0-33.3 27.1-60.5 60.4-60.5 33.4 0 60.5 27.2 60.5 60.5zm-11.5 0c0-27-22-49-49-49-27 0-48.9 22-48.9 49 0 27 21.9 49 48.9 49 27 0 49-22 49-49z"/>
			<path id="&lt;Compound Path&gt;" fill-rule="evenodd" class="s0" d="m189.9 113.7c0 4.5-2.5 8.5-6.5 10.5l-11.2 5.6-5.6 11.3c-2.1 4-6.1 6.5-10.6 6.5-4.4 0-8.5-2.5-10.5-6.5l-5.6-11.3-11.2-5.6c-4-2-6.5-6-6.5-10.5 0-4.5 2.5-8.5 6.5-10.5l11.2-5.6 5.6-11.2c2-4 6.1-6.5 10.5-6.5 4.5 0 8.5 2.5 10.6 6.5l5.6 11.2 11.2 5.6c4 2 6.5 6 6.5 10.5zm-10-3.6l-12.3-6.2c-0.7-0.4-1.4-1-1.8-1.8l-6.1-12.3c-0.8-1.5-2.2-2.2-3.7-2.2-1.4 0-2.8 0.7-3.6 2.2l-6.2 12.3c-0.3 0.8-1 1.4-1.8 1.8l-12.3 6.2c-3 1.5-3 5.8 0 7.3l12.3 6.1c0.8 0.4 1.5 1 1.8 1.8l6.2 12.3c0.8 1.5 2.2 2.3 3.6 2.3 1.5 0 2.9-0.8 3.7-2.3l6.1-12.3c0.4-0.8 1.1-1.4 1.8-1.8l12.3-6.1c3-1.5 3-5.8 0-7.3z"/>
		</g>
		<g id="&lt;Group&gt;">
		</g>
		<g id="&lt;Group&gt;">
		</g>
		<g id="&lt;Group&gt;">
		</g>
		<g id="&lt;Group&gt;">
		</g>
		<g id="&lt;Group&gt;">
		</g>
		<g id="&lt;Group&gt;">
		</g>
	</g>
</svg>